<svg version="1.1" xmlns="http://www.w3.org/2000/svg" xmlns:xlink="http://www.w3.org/1999/xlink" x="0px" y="0px" width="20px" height="20px" viewBox="0 0 512 512" enable-background="new 0 0 512 512" xml:space="preserve">
	<path fill="#3b5998" d="M50,64.991v293.682h64.501v88.336l131.978-88.336H462V64.991H50z M177.5,237.61c-15.188,0-27.5-12.312-27.5-27.5s12.312-27.5,27.5-27.5s27.5,12.312,27.5,27.5S192.688,237.61,177.5,237.61z M259.5,237.61c-15.188,0-27.5-12.312-27.5-27.5s12.312-27.5,27.5-27.5s27.5,12.312,27.5,27.5S274.688,237.61,259.5,237.61z M340.5,237.61c-15.188,0-27.5-12.312-27.5-27.5s12.312-27.5,27.5-27.5s27.5,12.312,27.5,27.5S355.688,237.61,340.5,237.61z"/>
</svg>