
<svg version="1.1" xmlns="http://www.w3.org/2000/svg" xmlns:xlink="http://www.w3.org/1999/xlink" x="0px" y="0px" width="32px" height="32px" viewBox="0 0 512 512" enable-background="new 0 0 512 512" xml:space="preserve">
 <defs>
  <linearGradient y2="100%" x2="60%" y1="0%" x1="40%" id="grad">
   <stop stop-color="rgb(255,255,255)" offset="0%"/>
   <stop stop-color="rgb(113,206,239)" offset="50%"/>
   <stop stop-color="rgb(0,157,255)" offset="51%"/>
   <stop stop-color="rgb(183,222,237)" offset="100%"/>
  </linearGradient>
  <marker refY="50" refX="50" markerHeight="5" markerWidth="5" viewBox="0 0 100 100" se_type="reverseslash" orient="auto" markerUnits="strokeWidth" id="se_marker_start">
   <path stroke-width="10" fill="none" d="m30,0l40,100"/>
  </marker>
  <marker refY="50" refX="50" markerHeight="5" markerWidth="5" viewBox="0 0 100 100" se_type="reverseslash" orient="auto" markerUnits="strokeWidth" id="se_marker_start_svg_23">
   <path stroke-width="10" fill="none" d="m30,0l40,100"/>
  </marker>
 </defs>
 <g>  
  <path opacity="0.67" marker-start="url(#se_marker_start)" d="m342.41599,179.584c10.01401,10.01401 10.01401,26.25101 -0.00101,36.26601l-136.56898,136.57001c-10.01401,10.01498 -26.25101,10.01401 -36.265,-0.00101l0,0c-10.01601,-10.01401 -10.01601,-26.25101 -0.00101,-36.26498l136.569,-136.57001c10.01401,-10.01401 26.25101,-10.01401 36.267,-0.00002l0,0zm-156.87498,229.79301c-20.103,20.103 -52.813,20.103 -72.91701,0c-20.10299,-20.104 -20.10299,-52.814 0,-72.91699l96.791,-96.68102c-32.47899,-7.88499 -68.16899,0.853 -93.52998,26.21404l-36.86501,36.86395c-38.693,38.69299 -38.693,101.42902 0,140.12302c38.69399,38.69299 101.43,38.69299 140.12301,0l36.86398,-36.86401c25.35703,-25.358 34.095,-61.04199 26.216,-93.517l-96.68199,96.77802zm107.31499,-320.35702l-36.862,36.863c-25.362,25.362 -34.15399,60.99599 -26.27,93.476l96.735,-96.73601c20.104,-20.103 52.81201,-20.103 72.91602,0c20.104,20.103 20.104,52.81201 0.00098,72.916l-96.72998,96.73003c32.47598,7.87997 68.11099,-0.90402 93.47,-26.26401l36.86398,-36.864c38.69202,-38.69301 38.69202,-101.42801 -0.00101,-140.12201c-38.69397,-38.69299 -101.42798,-38.69299 -140.12299,0.001z" fill="#000000"/>
  <path id="svg_23" marker-start="url(#se_marker_start_svg_23)" d="m342.41641,189.584c10.01401,10.01401 10.01401,26.25101 -0.00101,36.26601l-136.56898,136.57001c-10.01401,10.01498 -26.25101,10.01401 -36.265,-0.00101l0,0c-10.01601,-10.01401 -10.01601,-26.25101 -0.00101,-36.26498l136.569,-136.57001c10.01401,-10.01401 26.25101,-10.01401 36.267,-0.00002l0,0zm-156.87498,229.79301c-20.103,20.103 -52.813,20.103 -72.91701,0c-20.10299,-20.104 -20.10299,-52.814 0,-72.91699l96.791,-96.68102c-32.47899,-7.88499 -68.16899,0.853 -93.52998,26.21404l-36.86501,36.86395c-38.693,38.69299 -38.693,101.42902 0,140.12302c38.69398,38.69299 101.42999,38.69299 140.123,0l36.86398,-36.86401c25.35703,-25.358 34.095,-61.04199 26.216,-93.517l-96.68199,96.77802zm107.31499,-320.35702l-36.862,36.863c-25.362,25.362 -34.15399,60.99599 -26.27,93.476l96.735,-96.73601c20.104,-20.103 52.81201,-20.103 72.91602,0c20.104,20.103 20.104,52.81201 0.00098,72.916l-96.72998,96.73003c32.47598,7.87997 68.11099,-0.90402 93.47,-26.26401l36.86398,-36.864c38.69202,-38.69301 38.69202,-101.42801 -0.00101,-140.12201c-38.69397,-38.693 -101.42798,-38.693 -140.12299,0.001z" fill="url(#grad)"/>
 </g>
</svg>

