<svg version="1.1" xmlns="http://www.w3.org/2000/svg" xmlns:xlink="http://www.w3.org/1999/xlink" x="0px" y="0px" width="34px" height="34px" viewBox="0 0 512 512" enable-background="new 0 0 512 512" xml:space="preserve">
	<path fill="rgba(255,255,255,0.6)" d="M266.298,310.771L125.235,451.832L80.808,462l-14.542-14.461l133.886-133.887l-14.65-14.65L52.282,432.223l7.693-49.647L199.04,243.511L266.298,310.771z M355.442,301.916l95.415-113.269c12.603-14.957,11.657-37.074-2.175-50.904l-76.708-76.71c-13.839-13.837-35.971-14.775-50.927-2.157l-113.195,95.486c-16.859,14.221-17.938,39.844-2.348,55.43l94.491,94.49C315.596,319.886,341.233,318.787,355.442,301.916z M318.524,104.894l17.178-14.214c6.738-5.573,16.609-5.109,22.793,1.073l59.604,59.604c6.213,6.211,6.65,16.14,1.008,22.873l-14.242,17.002L318.524,104.894z"/>
</svg>
