<svg version="1.1" xmlns="http://www.w3.org/2000/svg" xmlns:xlink="http://www.w3.org/1999/xlink" x="0px" y="0px"
 width="40px" height="40px" viewBox="0 0 512 512" enable-background="new 0 0 512 512" xml:space="preserve">
	<path fill="rgba(255,255,255,1)" d="M339.713,284.986c-4.898,1.089-27.579,0.906-27.579,0.906l12.521-60.42h14.695C380.198,226.342,367.436,278.828,339.713,284.986z M462,169.167v173.666c0,24.853-20.147,45-45,45H95c-24.853,0-45-20.147-45-45V169.167c0-24.853,20.147-45,45-45h322C441.853,124.167,462,144.314,462,169.167z M239.648,320.55l27.034-128.101h-39.915l-9.073,42.641h-43.002l9.071-42.641h-40.278l-27.4,128.101h40.463l11.067-51.53h42.822l-10.707,51.53H239.648z M347.879,192.449h-56.064L265.141,320.55h47.538c26.777,0,57.016,0.536,78.201-28.668C413.171,261.566,414.985,192.449,347.879,192.449z"/>
</svg>
